<svg xmlns="http://www.w3.org/2000/svg" width="1060" height="560" viewBox="0 0 1060 560">
<rect width="100%" height="100%" fill="white"/>
<text x="530.0" y="28" text-anchor="middle" font-family="Arial" font-size="20" font-weight="bold">Qwen 7B FSDP Step Time: Native (RCCL) vs MORI</text>
<text x="530.0" y="50" text-anchor="middle" font-family="Arial" font-size="13" fill="#374151">native avg 0.350884s, MORI avg 0.313014s, speedup 1.121x</text>
<line x1="86.00" y1="56" x2="86.00" y2="484" stroke="#e5e7eb"/>
<text x="86.00" y="509" text-anchor="middle" font-family="Arial" font-size="12">0</text>
<line x1="204.09" y1="56" x2="204.09" y2="484" stroke="#e5e7eb"/>
<text x="204.09" y="509" text-anchor="middle" font-family="Arial" font-size="12">250</text>
<line x1="322.18" y1="56" x2="322.18" y2="484" stroke="#e5e7eb"/>
<text x="322.18" y="509" text-anchor="middle" font-family="Arial" font-size="12">500</text>
<line x1="440.27" y1="56" x2="440.27" y2="484" stroke="#e5e7eb"/>
<text x="440.27" y="509" text-anchor="middle" font-family="Arial" font-size="12">750</text>
<line x1="558.36" y1="56" x2="558.36" y2="484" stroke="#e5e7eb"/>
<text x="558.36" y="509" text-anchor="middle" font-family="Arial" font-size="12">1000</text>
<line x1="676.45" y1="56" x2="676.45" y2="484" stroke="#e5e7eb"/>
<text x="676.45" y="509" text-anchor="middle" font-family="Arial" font-size="12">1250</text>
<line x1="794.54" y1="56" x2="794.54" y2="484" stroke="#e5e7eb"/>
<text x="794.54" y="509" text-anchor="middle" font-family="Arial" font-size="12">1500</text>
<line x1="912.63" y1="56" x2="912.63" y2="484" stroke="#e5e7eb"/>
<text x="912.63" y="509" text-anchor="middle" font-family="Arial" font-size="12">1750</text>
<line x1="86" y1="413.09" x2="1026" y2="413.09" stroke="#e5e7eb"/>
<text x="76" y="417.09" text-anchor="end" font-family="Arial" font-size="12">0.300</text>
<line x1="86" y1="318.02" x2="1026" y2="318.02" stroke="#e5e7eb"/>
<text x="76" y="322.02" text-anchor="end" font-family="Arial" font-size="12">0.320</text>
<line x1="86" y1="222.96" x2="1026" y2="222.96" stroke="#e5e7eb"/>
<text x="76" y="226.96" text-anchor="end" font-family="Arial" font-size="12">0.340</text>
<line x1="86" y1="127.90" x2="1026" y2="127.90" stroke="#e5e7eb"/>
<text x="76" y="131.90" text-anchor="end" font-family="Arial" font-size="12">0.360</text>
<rect x="86" y="56" width="940" height="428" fill="none" stroke="#111827"/>
<polyline points="86.00,177.45 90.72,169.19 95.45,188.07 100.17,181.70 104.89,179.33 109.62,186.37 114.34,180.19 119.07,176.69 123.79,173.18 128.51,174.25 133.24,167.16 137.96,165.13 142.68,162.76 147.41,103.11 152.13,185.35 156.85,169.36 161.58,172.81 166.30,85.52 171.03,190.39 175.75,192.58 180.47,171.51 185.20,162.04 189.92,166.44 194.64,171.74 199.37,169.85 204.09,172.22 208.81,165.15 213.54,163.95 218.26,162.04 222.98,164.45 227.71,169.55 232.43,163.58 237.16,163.37 241.88,170.25 246.60,173.45 251.33,175.18 256.05,90.15 260.77,180.09 265.50,176.51 270.22,174.07 274.94,170.44 279.67,185.74 284.39,194.61 289.12,196.19 293.84,188.75 298.56,177.19 303.29,178.79 308.01,162.84 312.73,160.56 317.46,157.17 322.18,161.30 326.90,164.06 331.63,161.67 336.35,165.95 341.08,154.50 345.80,160.56 350.52,186.52 355.25,186.73 359.97,191.27 364.69,188.96 369.42,188.49 374.14,193.71 378.86,191.27 383.59,193.91 388.31,185.00 393.04,187.38 397.76,189.04 402.48,181.88 407.21,160.97 411.93,87.73 416.65,158.01 421.38,163.24 426.10,164.08 430.82,157.75 435.55,172.81 440.27,162.85 444.99,152.27 449.72,151.81 454.44,154.42 459.17,157.46 463.89,171.66 468.61,188.93 473.34,174.79 478.06,174.43 482.78,177.87 487.51,168.69 492.23,171.59 496.95,170.63 501.68,173.86 506.40,190.53 511.13,184.08 515.85,191.73 520.57,127.22 525.30,190.14 530.02,150.92 534.74,165.83 539.47,183.91 544.19,189.17 548.91,193.88 553.64,186.43 558.36,188.14 563.09,191.61 567.81,189.72 572.53,188.38 577.26,188.97 581.98,187.48 586.70,190.68 591.43,190.54 596.15,187.78 600.87,187.77 605.60,188.39 610.32,189.88 615.05,189.97 619.77,192.55 624.49,190.19 629.22,189.99 633.94,182.91 638.66,186.84 643.39,184.34 648.11,179.83 652.83,176.82 657.56,178.59 662.28,187.13 667.01,185.26 671.73,171.33 676.45,166.28 681.18,177.04 685.90,180.46 690.62,170.26 695.35,165.67 700.07,179.63 704.79,184.72 709.52,184.54 714.24,178.85 718.96,166.65 723.69,166.44 728.41,162.39 733.14,169.20 737.86,171.93 742.58,158.23 747.31,161.49 752.03,155.75 756.75,162.02 761.48,165.80 766.20,170.48 770.92,162.51 775.65,157.43 780.37,159.62 785.10,134.27 789.82,167.02 794.54,170.08 799.27,167.06 803.99,169.38 808.71,163.49 813.44,161.94 818.16,163.53 822.88,168.03 827.61,122.25 832.33,166.42 837.06,165.66 841.78,171.33 846.50,179.43 851.23,168.03 855.95,172.06 860.67,160.33 865.40,171.88 870.12,170.40 874.84,170.74 879.57,175.89 884.29,174.64 889.02,167.01 893.74,169.58 898.46,171.02 903.19,162.92 907.91,157.84 912.63,120.98 917.36,186.03 922.08,182.96 926.80,184.18 931.53,180.92 936.25,127.33 940.97,187.24 945.70,189.52 950.42,184.54 955.15,160.13 959.87,170.47 964.59,167.55 969.32,163.08 974.04,161.64 978.76,167.58 983.49,157.19 988.21,163.17 992.93,162.11 997.66,167.89 1002.38,172.01 1007.11,177.64 1011.83,171.38 1016.55,170.36 1021.28,121.03 1026.00,183.74" fill="none" stroke="#2563eb" stroke-width="2.0"/>
<polyline points="86.00,404.74 90.72,386.91 95.45,380.21 100.17,392.84 104.89,391.79 109.62,392.53 114.34,303.85 119.07,375.22 123.79,378.37 128.51,391.47 133.24,454.48 137.96,399.06 142.68,314.44 147.41,404.66 152.13,413.16 156.85,374.42 161.58,356.33 166.30,357.72 171.03,332.90 175.75,385.58 180.47,412.04 185.20,406.74 189.92,341.88 194.64,331.30 199.37,331.02 204.09,342.10 208.81,344.14 213.54,338.28 218.26,271.95 222.98,348.80 227.71,325.42 232.43,319.64 237.16,311.82 241.88,319.05 246.60,258.11 251.33,331.74 256.05,349.52 260.77,343.88 265.50,345.21 270.22,328.41 274.94,323.49 279.67,318.64 284.39,315.91 289.12,331.79 293.84,340.46 298.56,395.16 303.29,398.23 308.01,350.48 312.73,355.59 317.46,350.38 322.18,352.74 326.90,348.61 331.63,338.19 336.35,386.65 341.08,333.49 345.80,340.54 350.52,341.99 355.25,331.35 359.97,337.34 364.69,370.35 369.42,388.09 374.14,398.73 378.86,390.58 383.59,381.27 388.31,380.40 393.04,292.57 397.76,415.99 402.48,397.62 407.21,355.24 411.93,411.66 416.65,383.88 421.38,329.74 426.10,346.24 430.82,344.28 435.55,334.59 440.27,343.66 444.99,337.46 449.72,340.36 454.44,337.15 459.17,338.47 463.89,316.71 468.61,244.56 473.34,337.27 478.06,338.34 482.78,335.11 487.51,348.75 492.23,341.88 496.95,281.84 501.68,343.22 506.40,346.92 511.13,341.52 515.85,352.17 520.57,353.49 525.30,318.20 530.02,328.37 534.74,330.23 539.47,320.35 544.19,323.73 548.91,248.23 553.64,300.86 558.36,357.14 563.09,354.04 567.81,347.67 572.53,353.97 577.26,287.38 581.98,360.45 586.70,369.00 591.43,432.67 596.15,387.47 600.87,349.22 605.60,276.14 610.32,340.14 615.05,343.85 619.77,346.56 624.49,332.56 629.22,342.70 633.94,344.71 638.66,342.30 643.39,397.45 648.11,409.65 652.83,408.32 657.56,406.80 662.28,410.59 667.01,397.24 671.73,396.44 676.45,397.31 681.18,317.69 685.90,402.92 690.62,262.56 695.35,397.07 700.07,411.86 704.79,413.74 709.52,365.87 714.24,344.50 718.96,329.84 723.69,344.89 728.41,338.29 733.14,329.21 737.86,316.25 742.58,349.13 747.31,328.52 752.03,258.12 756.75,324.10 761.48,324.68 766.20,245.39 770.92,334.84 775.65,342.58 780.37,395.70 785.10,422.92 789.82,430.09 794.54,352.57 799.27,330.87 803.99,315.52 808.71,310.88 813.44,326.62 818.16,316.45 822.88,327.40 827.61,264.38 832.33,324.88 837.06,314.73 841.78,332.67 846.50,335.11 851.23,326.67 855.95,244.37 860.67,339.21 865.40,334.87 870.12,351.79 874.84,346.06 879.57,335.78 884.29,317.87 889.02,335.73 893.74,336.61 898.46,341.00 903.19,343.77 907.91,334.71 912.63,340.44 917.36,341.01 922.08,405.68 926.80,400.47 931.53,399.79 936.25,338.42 940.97,362.45 945.70,324.46 950.42,316.16 955.15,333.22 959.87,333.95 964.59,273.88 969.32,376.36 974.04,420.61 978.76,412.99 983.49,414.29 988.21,392.90 992.93,415.18 997.66,416.82 1002.38,392.85 1007.11,425.53 1011.83,412.00 1016.55,332.63 1021.28,353.40 1026.00,394.11" fill="none" stroke="#dc2626" stroke-width="2.0" stroke-dasharray="7 5"/>
<text x="556.0" y="538" text-anchor="middle" font-family="Arial" font-size="14">Step</text>
<text x="24" y="270.0" text-anchor="middle" font-family="Arial" font-size="14" transform="rotate(-90 24 270.0)">Average Step Time (s)</text>
<rect x="760" y="72" width="250" height="58" fill="white" stroke="#d1d5db"/>
<line x1="780" y1="92" x2="830" y2="92" stroke="#2563eb" stroke-width="2.5"/>
<text x="840" y="96" font-family="Arial" font-size="13">Native (RCCL)</text>
<line x1="780" y1="116" x2="830" y2="116" stroke="#dc2626" stroke-width="2.5" stroke-dasharray="7 5"/>
<text x="840" y="120" font-family="Arial" font-size="13">MORI SDMA</text>
</svg>