<svg xmlns="http://www.w3.org/2000/svg" width="1060" height="560" viewBox="0 0 1060 560">
<rect width="100%" height="100%" fill="white"/>
<text x="530.0" y="28" text-anchor="middle" font-family="Arial" font-size="20" font-weight="bold">Qwen 7B FSDP TFLOPs/GPU: Native (RCCL) vs MORI</text>
<text x="530.0" y="50" text-anchor="middle" font-family="Arial" font-size="13" fill="#374151">native avg 133.37, MORI avg 149.59, uplift +12.2%</text>
<line x1="86.00" y1="56" x2="86.00" y2="484" stroke="#e5e7eb"/>
<text x="86.00" y="509" text-anchor="middle" font-family="Arial" font-size="12">0</text>
<line x1="204.09" y1="56" x2="204.09" y2="484" stroke="#e5e7eb"/>
<text x="204.09" y="509" text-anchor="middle" font-family="Arial" font-size="12">250</text>
<line x1="322.18" y1="56" x2="322.18" y2="484" stroke="#e5e7eb"/>
<text x="322.18" y="509" text-anchor="middle" font-family="Arial" font-size="12">500</text>
<line x1="440.27" y1="56" x2="440.27" y2="484" stroke="#e5e7eb"/>
<text x="440.27" y="509" text-anchor="middle" font-family="Arial" font-size="12">750</text>
<line x1="558.36" y1="56" x2="558.36" y2="484" stroke="#e5e7eb"/>
<text x="558.36" y="509" text-anchor="middle" font-family="Arial" font-size="12">1000</text>
<line x1="676.45" y1="56" x2="676.45" y2="484" stroke="#e5e7eb"/>
<text x="676.45" y="509" text-anchor="middle" font-family="Arial" font-size="12">1250</text>
<line x1="794.54" y1="56" x2="794.54" y2="484" stroke="#e5e7eb"/>
<text x="794.54" y="509" text-anchor="middle" font-family="Arial" font-size="12">1500</text>
<line x1="912.63" y1="56" x2="912.63" y2="484" stroke="#e5e7eb"/>
<text x="912.63" y="509" text-anchor="middle" font-family="Arial" font-size="12">1750</text>
<line x1="86" y1="419.88" x2="1026" y2="419.88" stroke="#e5e7eb"/>
<text x="76" y="423.88" text-anchor="end" font-family="Arial" font-size="12">130.000</text>
<line x1="86" y1="310.72" x2="1026" y2="310.72" stroke="#e5e7eb"/>
<text x="76" y="314.72" text-anchor="end" font-family="Arial" font-size="12">140.000</text>
<line x1="86" y1="201.56" x2="1026" y2="201.56" stroke="#e5e7eb"/>
<text x="76" y="205.56" text-anchor="end" font-family="Arial" font-size="12">150.000</text>
<line x1="86" y1="92.39" x2="1026" y2="92.39" stroke="#e5e7eb"/>
<text x="76" y="96.39" text-anchor="end" font-family="Arial" font-size="12">160.000</text>
<rect x="86" y="56" width="940" height="428" fill="none" stroke="#111827"/>
<polyline points="86.00,377.85 90.72,385.06 95.45,368.46 100.17,374.14 104.89,376.21 109.62,369.99 114.34,375.45 119.07,378.51 123.79,381.56 128.51,380.69 133.24,386.80 137.96,388.66 142.68,390.62 147.41,440.40 152.13,370.87 156.85,384.95 161.58,381.89 166.30,454.48 171.03,366.39 175.75,364.42 180.47,383.09 185.20,391.28 189.92,387.46 194.64,382.87 199.37,384.51 204.09,382.44 208.81,388.55 213.54,389.64 218.26,391.28 222.98,389.20 227.71,384.73 232.43,389.97 237.16,390.19 241.88,384.18 246.60,381.34 251.33,379.82 256.05,450.77 260.77,375.56 265.50,378.72 270.22,380.80 274.94,383.96 279.67,370.54 284.39,362.57 289.12,361.15 293.84,367.81 298.56,378.07 303.29,376.65 308.01,390.62 312.73,392.59 317.46,395.43 322.18,391.93 326.90,389.53 331.63,391.61 336.35,387.89 341.08,397.72 345.80,392.59 350.52,369.88 355.25,369.66 359.97,365.63 364.69,367.70 369.42,368.03 374.14,363.44 378.86,365.63 383.59,363.22 388.31,371.19 393.04,369.12 397.76,367.59 402.48,373.92 407.21,392.15 411.93,452.74 416.65,394.77 421.38,390.30 426.10,389.53 430.82,394.99 435.55,381.89 440.27,390.62 444.99,399.68 449.72,400.01 454.44,397.83 459.17,395.21 463.89,382.87 468.61,367.70 473.34,380.14 478.06,380.47 482.78,377.52 487.51,385.49 492.23,382.98 496.95,383.86 501.68,381.02 506.40,366.28 511.13,371.96 515.85,365.19 520.57,420.75 525.30,366.61 530.02,400.78 534.74,388.00 539.47,372.18 544.19,367.48 548.91,363.22 553.64,369.88 558.36,368.35 563.09,365.30 567.81,366.94 572.53,368.14 577.26,367.70 581.98,369.01 586.70,366.17 591.43,366.28 596.15,368.68 600.87,368.68 605.60,368.14 610.32,366.83 615.05,366.72 619.77,364.42 624.49,366.61 629.22,366.72 633.94,373.05 638.66,369.56 643.39,371.74 648.11,375.78 652.83,378.40 657.56,376.87 662.28,369.34 667.01,370.97 671.73,383.20 676.45,387.57 681.18,378.18 685.90,375.23 690.62,384.18 695.35,388.11 700.07,376.00 704.79,371.41 709.52,371.63 714.24,376.65 718.96,387.24 723.69,387.46 728.41,390.95 733.14,385.06 737.86,382.65 742.58,394.55 747.31,391.71 752.03,396.74 756.75,391.28 761.48,388.00 766.20,383.96 770.92,390.84 775.65,395.21 780.37,393.35 785.10,414.86 789.82,387.02 794.54,384.29 799.27,386.91 803.99,384.95 808.71,390.08 813.44,391.39 818.16,389.97 822.88,386.15 827.61,424.79 832.33,387.46 837.06,388.11 841.78,383.20 846.50,376.10 851.23,386.04 855.95,382.55 860.67,392.81 865.40,382.76 870.12,384.07 874.84,383.75 879.57,379.27 884.29,380.36 889.02,387.02 893.74,384.73 898.46,383.53 903.19,390.51 907.91,394.88 912.63,425.88 917.36,370.32 922.08,373.05 926.80,371.96 931.53,374.79 936.25,420.64 940.97,369.23 945.70,367.15 950.42,371.63 955.15,392.92 959.87,383.96 964.59,386.48 969.32,390.41 974.04,391.61 978.76,386.48 983.49,395.43 988.21,390.30 992.93,391.28 997.66,386.26 1002.38,382.65 1007.11,377.74 1011.83,383.20 1016.55,384.07 1021.28,425.88 1026.00,372.28" fill="none" stroke="#2563eb" stroke-width="2.0"/>
<polyline points="86.00,146.32 90.72,167.06 95.45,174.81 100.17,160.29 104.89,161.49 109.62,160.62 114.34,257.56 119.07,180.49 123.79,176.89 128.51,161.82 133.24,85.52 137.96,152.98 142.68,246.53 147.41,146.43 152.13,136.28 156.85,181.36 161.58,201.56 166.30,200.03 171.03,227.10 175.75,168.59 180.47,137.70 185.20,143.92 189.92,217.38 194.64,228.74 199.37,229.06 204.09,217.17 208.81,214.98 213.54,221.31 218.26,289.76 222.98,209.85 227.71,235.07 232.43,241.07 237.16,249.26 241.88,241.73 246.60,303.29 251.33,228.30 256.05,209.09 260.77,215.20 265.50,213.78 270.22,231.79 274.94,237.03 279.67,242.16 284.39,245.00 289.12,228.19 293.84,218.91 298.56,157.56 303.29,153.96 308.01,208.00 312.73,202.43 317.46,208.11 322.18,205.59 326.90,210.07 331.63,221.42 336.35,167.39 341.08,226.44 345.80,218.80 350.52,217.28 355.25,228.74 359.97,222.30 364.69,185.95 369.42,165.75 374.14,153.42 378.86,162.91 383.59,173.61 388.31,174.59 393.04,269.13 397.76,132.89 402.48,154.73 407.21,202.76 411.93,138.13 416.65,170.55 421.38,230.48 426.10,212.69 430.82,214.76 435.55,225.24 440.27,215.42 444.99,222.19 449.72,219.02 454.44,222.51 459.17,221.10 463.89,244.24 468.61,316.39 473.34,222.41 478.06,221.20 482.78,224.70 487.51,209.96 492.23,217.38 496.95,279.93 501.68,215.97 506.40,211.93 511.13,217.82 515.85,206.14 520.57,204.72 525.30,242.60 530.02,231.90 534.74,229.94 539.47,240.42 544.19,236.81 548.91,312.90 553.64,260.61 558.36,200.68 563.09,204.07 567.81,211.05 572.53,204.18 577.26,274.37 581.98,197.08 586.70,187.47 591.43,112.70 596.15,166.51 600.87,209.42 605.60,285.61 610.32,219.24 615.05,215.20 619.77,212.25 624.49,227.43 629.22,216.51 633.94,214.33 638.66,216.95 643.39,154.83 648.11,140.53 652.83,142.06 657.56,143.92 662.28,139.44 667.01,155.16 671.73,156.04 676.45,155.05 681.18,243.15 685.90,148.50 690.62,298.93 695.35,155.27 700.07,137.91 704.79,135.62 709.52,190.97 714.24,214.55 718.96,230.27 723.69,214.11 728.41,221.31 733.14,231.03 737.86,244.67 742.58,209.52 747.31,231.68 752.03,303.29 756.75,236.38 761.48,235.83 766.20,315.52 770.92,225.03 775.65,216.62 780.37,156.91 785.10,124.60 789.82,115.86 794.54,205.70 799.27,229.17 803.99,245.44 808.71,250.24 813.44,233.76 818.16,244.46 822.88,232.89 827.61,297.18 832.33,235.61 837.06,246.31 841.78,227.32 846.50,224.70 851.23,233.65 855.95,316.50 860.67,220.22 865.40,224.92 870.12,206.58 874.84,212.80 879.57,223.93 884.29,243.04 889.02,224.04 893.74,223.06 898.46,218.37 903.19,215.31 907.91,225.13 912.63,218.91 917.36,218.37 922.08,145.23 926.80,151.34 931.53,152.11 936.25,221.10 940.97,194.79 945.70,236.05 950.42,244.78 955.15,226.66 959.87,225.90 964.59,287.79 969.32,179.18 974.04,127.44 978.76,136.50 983.49,134.97 988.21,160.18 992.93,133.88 997.66,131.91 1002.38,160.29 1007.11,121.43 1011.83,137.70 1016.55,227.32 1021.28,204.83 1026.00,158.76" fill="none" stroke="#dc2626" stroke-width="2.0" stroke-dasharray="7 5"/>
<text x="556.0" y="538" text-anchor="middle" font-family="Arial" font-size="14">Step</text>
<text x="24" y="270.0" text-anchor="middle" font-family="Arial" font-size="14" transform="rotate(-90 24 270.0)">TFLOPs/GPU</text>
<rect x="760" y="72" width="250" height="58" fill="white" stroke="#d1d5db"/>
<line x1="780" y1="92" x2="830" y2="92" stroke="#2563eb" stroke-width="2.5"/>
<text x="840" y="96" font-family="Arial" font-size="13">Native (RCCL)</text>
<line x1="780" y1="116" x2="830" y2="116" stroke="#dc2626" stroke-width="2.5" stroke-dasharray="7 5"/>
<text x="840" y="120" font-family="Arial" font-size="13">MORI SDMA</text>
</svg>