<svg xmlns="http://www.w3.org/2000/svg" width="1000" height="560" viewBox="0 0 1000 560">
<rect width="100%" height="100%" fill="white"/>
<text x="500" y="28" text-anchor="middle" font-family="Arial" font-size="20" font-weight="bold">Qwen 7B FSDP Loss: Native (RCCL) vs MORI</text>
<line x1="78.00" y1="50" x2="78.00" y2="488" stroke="#e5e7eb"/>
<text x="78.00" y="513" text-anchor="middle" font-family="Arial" font-size="12">0</text>
<line x1="190.06" y1="50" x2="190.06" y2="488" stroke="#e5e7eb"/>
<text x="190.06" y="513" text-anchor="middle" font-family="Arial" font-size="12">250</text>
<line x1="302.12" y1="50" x2="302.12" y2="488" stroke="#e5e7eb"/>
<text x="302.12" y="513" text-anchor="middle" font-family="Arial" font-size="12">500</text>
<line x1="414.18" y1="50" x2="414.18" y2="488" stroke="#e5e7eb"/>
<text x="414.18" y="513" text-anchor="middle" font-family="Arial" font-size="12">750</text>
<line x1="526.24" y1="50" x2="526.24" y2="488" stroke="#e5e7eb"/>
<text x="526.24" y="513" text-anchor="middle" font-family="Arial" font-size="12">1000</text>
<line x1="638.30" y1="50" x2="638.30" y2="488" stroke="#e5e7eb"/>
<text x="638.30" y="513" text-anchor="middle" font-family="Arial" font-size="12">1250</text>
<line x1="750.36" y1="50" x2="750.36" y2="488" stroke="#e5e7eb"/>
<text x="750.36" y="513" text-anchor="middle" font-family="Arial" font-size="12">1500</text>
<line x1="862.42" y1="50" x2="862.42" y2="488" stroke="#e5e7eb"/>
<text x="862.42" y="513" text-anchor="middle" font-family="Arial" font-size="12">1750</text>
<line x1="78" y1="429.51" x2="970" y2="429.51" stroke="#e5e7eb"/>
<text x="68" y="433.51" text-anchor="end" font-family="Arial" font-size="12">12.00</text>
<line x1="78" y1="327.24" x2="970" y2="327.24" stroke="#e5e7eb"/>
<text x="68" y="331.24" text-anchor="end" font-family="Arial" font-size="12">12.20</text>
<line x1="78" y1="224.96" x2="970" y2="224.96" stroke="#e5e7eb"/>
<text x="68" y="228.96" text-anchor="end" font-family="Arial" font-size="12">12.40</text>
<line x1="78" y1="122.69" x2="970" y2="122.69" stroke="#e5e7eb"/>
<text x="68" y="126.69" text-anchor="end" font-family="Arial" font-size="12">12.60</text>
<rect x="78" y="50" width="892" height="438" fill="none" stroke="#111827"/>
<polyline points="78.00,106.93 82.48,117.45 86.96,110.48 91.45,117.57 95.93,144.61 100.41,98.54 104.89,80.21 109.38,111.16 113.86,157.22 118.34,91.75 122.82,142.76 127.31,110.64 131.79,121.60 136.27,94.27 140.75,112.53 145.24,140.27 149.72,116.48 154.20,152.11 158.68,120.33 163.17,111.84 167.65,142.50 172.13,146.24 176.61,128.22 181.10,174.48 185.58,250.49 190.06,311.91 194.54,323.15 199.03,333.46 203.51,350.44 207.99,342.46 212.47,340.53 216.95,342.93 221.44,368.47 225.92,345.36 230.40,369.12 234.88,372.23 239.37,348.78 243.85,349.94 248.33,375.70 252.81,357.19 257.30,354.92 261.78,375.28 266.26,361.23 270.74,372.74 275.23,360.19 279.71,371.08 284.19,367.77 288.67,381.14 293.16,372.98 297.64,377.30 302.12,357.72 306.60,365.44 311.09,391.60 315.57,386.81 320.05,389.35 324.53,387.88 329.02,399.72 333.50,398.07 337.98,393.24 342.46,399.52 346.94,391.58 351.43,399.85 355.91,396.31 360.39,395.83 364.87,405.23 369.36,395.31 373.84,401.94 378.32,407.22 382.80,399.12 387.29,404.30 391.77,409.78 396.25,413.11 400.73,413.05 405.22,419.42 409.70,413.02 414.18,407.44 418.66,432.56 423.15,424.06 427.63,406.23 432.11,423.59 436.59,419.39 441.08,426.45 445.56,430.65 450.04,426.80 454.52,423.57 459.01,419.16 463.49,422.82 467.97,433.37 472.45,423.23 476.93,426.23 481.42,430.09 485.90,421.36 490.38,428.80 494.86,430.10 499.35,435.49 503.83,417.24 508.31,430.36 512.79,427.39 517.28,435.39 521.76,433.82 526.24,434.87 530.72,437.64 535.21,427.33 539.69,427.48 544.17,431.28 548.65,435.45 553.14,428.20 557.62,430.11 562.10,431.83 566.58,424.01 571.07,431.13 575.55,432.33 580.03,426.71 584.51,441.35 588.99,425.61 593.48,427.47 597.96,423.28 602.44,428.02 606.92,436.68 611.41,431.66 615.89,418.92 620.37,427.07 624.85,437.77 629.34,407.12 633.82,434.66 638.30,421.53 642.78,435.03 647.27,433.34 651.75,441.63 656.23,435.55 660.71,437.33 665.20,430.82 669.68,431.72 674.16,435.40 678.64,436.10 683.13,454.09 687.61,440.97 692.09,429.05 696.57,441.44 701.06,434.69 705.54,431.71 710.02,442.82 714.50,440.57 718.98,440.50 723.47,432.05 727.95,436.52 732.43,432.80 736.91,431.42 741.40,427.87 745.88,422.53 750.36,422.36 754.84,430.62 759.33,440.69 763.81,438.16 768.29,442.25 772.77,431.16 777.26,438.87 781.74,438.61 786.22,439.35 790.70,438.76 795.19,435.67 799.67,437.87 804.15,435.02 808.63,441.64 813.12,449.25 817.60,438.56 822.08,429.62 826.56,441.30 831.05,438.08 835.53,443.28 840.01,445.02 844.49,437.96 848.97,444.44 853.46,442.08 857.94,443.95 862.42,449.17 866.90,446.90 871.39,440.58 875.87,447.30 880.35,447.58 884.83,448.54 889.32,445.13 893.80,438.36 898.28,449.33 902.76,437.51 907.25,442.57 911.73,442.67 916.21,444.79 920.69,442.28 925.18,446.94 929.66,449.34 934.14,450.43 938.62,446.06 943.11,438.91 947.59,448.30 952.07,457.79 956.55,443.68 961.04,446.49 965.52,442.12 970.00,448.15" fill="none" stroke="#2563eb" stroke-width="2.2"/>
<polyline points="78.00,106.93 82.48,117.45 86.96,110.48 91.45,117.57 95.93,144.61 100.41,98.54 104.89,80.21 109.38,111.16 113.86,157.22 118.34,91.75 122.82,142.76 127.31,110.64 131.79,121.60 136.27,94.27 140.75,112.53 145.24,140.27 149.72,116.48 154.20,152.11 158.68,120.33 163.17,111.84 167.65,142.50 172.13,146.24 176.61,128.22 181.10,174.48 185.58,250.49 190.06,311.91 194.54,323.15 199.03,333.46 203.51,350.44 207.99,342.46 212.47,340.53 216.95,342.93 221.44,368.47 225.92,345.36 230.40,369.12 234.88,372.23 239.37,348.78 243.85,349.94 248.33,375.70 252.81,357.19 257.30,354.92 261.78,375.28 266.26,361.23 270.74,372.74 275.23,360.19 279.71,371.08 284.19,367.77 288.67,381.14 293.16,372.98 297.64,377.30 302.12,357.72 306.60,365.44 311.09,391.60 315.57,386.81 320.05,389.35 324.53,387.88 329.02,399.72 333.50,398.07 337.98,393.24 342.46,399.52 346.94,391.58 351.43,399.85 355.91,396.31 360.39,395.83 364.87,405.23 369.36,395.31 373.84,401.94 378.32,407.22 382.80,399.12 387.29,404.30 391.77,409.78 396.25,413.11 400.73,413.05 405.22,419.42 409.70,413.02 414.18,407.44 418.66,432.56 423.15,424.06 427.63,406.23 432.11,423.59 436.59,419.39 441.08,426.45 445.56,430.65 450.04,426.80 454.52,423.57 459.01,419.16 463.49,422.82 467.97,433.37 472.45,423.23 476.93,426.23 481.42,430.09 485.90,421.36 490.38,428.80 494.86,430.10 499.35,435.49 503.83,417.24 508.31,430.36 512.79,427.39 517.28,435.39 521.76,433.82 526.24,434.87 530.72,437.64 535.21,427.33 539.69,427.48 544.17,431.28 548.65,435.45 553.14,428.20 557.62,430.11 562.10,431.83 566.58,424.01 571.07,431.13 575.55,432.33 580.03,426.71 584.51,441.35 588.99,425.61 593.48,427.47 597.96,423.28 602.44,428.02 606.92,436.68 611.41,431.66 615.89,418.92 620.37,427.07 624.85,437.77 629.34,407.12 633.82,434.66 638.30,421.53 642.78,435.03 647.27,433.34 651.75,441.63 656.23,435.55 660.71,437.33 665.20,430.82 669.68,431.72 674.16,435.40 678.64,436.10 683.13,454.09 687.61,440.97 692.09,429.05 696.57,441.44 701.06,434.69 705.54,431.71 710.02,442.82 714.50,440.57 718.98,440.50 723.47,432.05 727.95,436.52 732.43,432.80 736.91,431.42 741.40,427.87 745.88,422.53 750.36,422.36 754.84,430.62 759.33,440.69 763.81,438.16 768.29,442.25 772.77,431.16 777.26,438.87 781.74,438.61 786.22,439.35 790.70,438.76 795.19,435.67 799.67,437.87 804.15,435.02 808.63,441.64 813.12,449.25 817.60,438.56 822.08,429.62 826.56,441.30 831.05,438.08 835.53,443.28 840.01,445.02 844.49,437.96 848.97,444.44 853.46,442.08 857.94,443.95 862.42,449.17 866.90,446.90 871.39,440.58 875.87,447.30 880.35,447.58 884.83,448.54 889.32,445.13 893.80,438.36 898.28,449.33 902.76,437.51 907.25,442.57 911.73,442.67 916.21,444.79 920.69,442.28 925.18,446.94 929.66,449.34 934.14,450.43 938.62,446.06 943.11,438.91 947.59,448.30 952.07,457.79 956.55,443.68 961.04,446.49 965.52,442.12 970.00,448.15" fill="none" stroke="#dc2626" stroke-width="2.2" stroke-dasharray="7 5"/>
<text x="524.0" y="538" text-anchor="middle" font-family="Arial" font-size="14">Step</text>
<text x="20" y="269.0" text-anchor="middle" font-family="Arial" font-size="14" transform="rotate(-90 20 269.0)">Loss</text>
<rect x="690" y="64" width="260" height="58" fill="white" stroke="#d1d5db"/>
<line x1="710" y1="84" x2="760" y2="84" stroke="#2563eb" stroke-width="2.5"/>
<text x="770" y="88" font-family="Arial" font-size="13">Native (RCCL)</text>
<line x1="710" y1="108" x2="760" y2="108" stroke="#dc2626" stroke-width="2.5" stroke-dasharray="7 5"/>
<text x="770" y="112" font-family="Arial" font-size="13">MORI SDMA</text>
</svg>